<mxfile host="Electron" agent="Mozilla/5.0 (Windows NT 10.0; Win64; x64) AppleWebKit/537.36 (KHTML, like Gecko) draw.io/24.7.8 Chrome/128.0.6613.36 Electron/32.0.1 Safari/537.36" version="24.7.8">
  <diagram name="Page-1" id="TTq3JFzEm3KF4TAmYaaw">
    <mxGraphModel dx="4626" dy="1393" grid="1" gridSize="10" guides="1" tooltips="1" connect="1" arrows="1" fold="1" page="1" pageScale="1" pageWidth="1169" pageHeight="827" math="0" shadow="0">
      <root>
        <mxCell id="0" />
        <mxCell id="1" parent="0" />
        <mxCell id="n2btJtfBKIa6bxDplJhF-130" value="" style="rounded=0;whiteSpace=wrap;html=1;fillColor=#d0cee2;strokeColor=#56517e;" vertex="1" parent="1">
          <mxGeometry x="-310" y="1890" width="1450" height="320" as="geometry" />
        </mxCell>
        <mxCell id="n2btJtfBKIa6bxDplJhF-127" value="" style="rounded=0;whiteSpace=wrap;html=1;fillColor=#b1ddf0;strokeColor=#10739e;" vertex="1" parent="1">
          <mxGeometry x="-310" y="1670" width="1450" height="220" as="geometry" />
        </mxCell>
        <mxCell id="n2btJtfBKIa6bxDplJhF-125" value="" style="rounded=0;whiteSpace=wrap;html=1;fillColor=#b0e3e6;strokeColor=#0e8088;" vertex="1" parent="1">
          <mxGeometry x="-310" y="990" width="1450" height="680" as="geometry" />
        </mxCell>
        <mxCell id="cm7tOoF1IvRiaTxDZUHN-2" value="&lt;font style=&quot;color: rgb(84, 91, 100);&quot;&gt;AWS Cloud&lt;/font&gt;" style="points=[[0,0],[0.25,0],[0.5,0],[0.75,0],[1,0],[1,0.25],[1,0.5],[1,0.75],[1,1],[0.75,1],[0.5,1],[0.25,1],[0,1],[0,0.75],[0,0.5],[0,0.25]];outlineConnect=0;gradientColor=none;html=1;whiteSpace=wrap;fontSize=12;fontStyle=0;container=1;pointerEvents=0;collapsible=0;recursiveResize=0;shape=mxgraph.aws4.group;grIcon=mxgraph.aws4.group_aws_cloud_alt;strokeColor=#545B64;fillColor=none;verticalAlign=top;align=left;spacingLeft=30;fontColor=#232F3E;dashed=0;" parent="1" vertex="1">
          <mxGeometry x="369" y="127" width="440" height="530" as="geometry" />
        </mxCell>
        <mxCell id="pz8w-qD7uEeiCFy5i-9x-25" value="" style="sketch=0;points=[[0,0,0],[0.25,0,0],[0.5,0,0],[0.75,0,0],[1,0,0],[0,1,0],[0.25,1,0],[0.5,1,0],[0.75,1,0],[1,1,0],[0,0.25,0],[0,0.5,0],[0,0.75,0],[1,0.25,0],[1,0.5,0],[1,0.75,0]];outlineConnect=0;fontColor=#232F3E;fillColor=#E7157B;strokeColor=#ffffff;dashed=0;verticalLabelPosition=bottom;verticalAlign=top;align=center;html=1;fontSize=12;fontStyle=0;aspect=fixed;shape=mxgraph.aws4.resourceIcon;resIcon=mxgraph.aws4.mq;" parent="cm7tOoF1IvRiaTxDZUHN-2" vertex="1">
          <mxGeometry x="310" y="220" width="70" height="70" as="geometry" />
        </mxCell>
        <mxCell id="pz8w-qD7uEeiCFy5i-9x-21" value="" style="sketch=0;points=[[0,0,0],[0.25,0,0],[0.5,0,0],[0.75,0,0],[1,0,0],[0,1,0],[0.25,1,0],[0.5,1,0],[0.75,1,0],[1,1,0],[0,0.25,0],[0,0.5,0],[0,0.75,0],[1,0.25,0],[1,0.5,0],[1,0.75,0]];outlineConnect=0;fontColor=#232F3E;fillColor=#E7157B;strokeColor=#ffffff;dashed=0;verticalLabelPosition=bottom;verticalAlign=top;align=center;html=1;fontSize=12;fontStyle=0;aspect=fixed;shape=mxgraph.aws4.resourceIcon;resIcon=mxgraph.aws4.sns;" parent="cm7tOoF1IvRiaTxDZUHN-2" vertex="1">
          <mxGeometry x="310" y="329" width="70" height="70" as="geometry" />
        </mxCell>
        <mxCell id="cm7tOoF1IvRiaTxDZUHN-5" value="" style="edgeStyle=orthogonalEdgeStyle;html=1;endArrow=none;elbow=vertical;startArrow=block;startFill=1;strokeColor=#545B64;rounded=1;fontSize=12;startSize=8;endSize=8;curved=0;flowAnimation=1;flowAnimationDirection=reverse;" parent="cm7tOoF1IvRiaTxDZUHN-2" source="pz8w-qD7uEeiCFy5i-9x-21" target="pz8w-qD7uEeiCFy5i-9x-1" edge="1">
          <mxGeometry width="100" relative="1" as="geometry">
            <mxPoint x="250" y="260" as="sourcePoint" />
            <mxPoint x="350" y="260" as="targetPoint" />
          </mxGeometry>
        </mxCell>
        <mxCell id="cm7tOoF1IvRiaTxDZUHN-7" value="Elastic Kubernet Service" style="points=[[0,0],[0.25,0],[0.5,0],[0.75,0],[1,0],[1,0.25],[1,0.5],[1,0.75],[1,1],[0.75,1],[0.5,1],[0.25,1],[0,1],[0,0.75],[0,0.5],[0,0.25]];outlineConnect=0;gradientColor=none;html=1;whiteSpace=wrap;fontSize=12;fontStyle=0;container=1;pointerEvents=0;collapsible=0;recursiveResize=0;shape=mxgraph.aws4.group;grIcon=mxgraph.aws4.group_elastic_beanstalk;strokeColor=#D86613;fillColor=none;verticalAlign=top;align=left;spacingLeft=30;fontColor=#D86613;dashed=0;" parent="cm7tOoF1IvRiaTxDZUHN-2" vertex="1">
          <mxGeometry x="30" y="200" width="190" height="210" as="geometry" />
        </mxCell>
        <mxCell id="pz8w-qD7uEeiCFy5i-9x-1" value="&lt;font style=&quot;color: rgb(84, 91, 100);&quot;&gt;Process Service&lt;/font&gt;" style="rounded=1;whiteSpace=wrap;html=1;strokeColor=#545B64;" parent="cm7tOoF1IvRiaTxDZUHN-7" vertex="1">
          <mxGeometry x="20" y="134" width="120" height="60" as="geometry" />
        </mxCell>
        <mxCell id="pz8w-qD7uEeiCFy5i-9x-2" value="&lt;font style=&quot;color: rgb(84, 91, 100);&quot;&gt;Publish Service&lt;/font&gt;" style="rounded=1;whiteSpace=wrap;html=1;strokeColor=#545B64;" parent="cm7tOoF1IvRiaTxDZUHN-7" vertex="1">
          <mxGeometry x="20" y="40" width="120" height="60" as="geometry" />
        </mxCell>
        <mxCell id="cm7tOoF1IvRiaTxDZUHN-9" value="" style="sketch=0;points=[[0,0,0],[0.25,0,0],[0.5,0,0],[0.75,0,0],[1,0,0],[0,1,0],[0.25,1,0],[0.5,1,0],[0.75,1,0],[1,1,0],[0,0.25,0],[0,0.5,0],[0,0.75,0],[1,0.25,0],[1,0.5,0],[1,0.75,0]];outlineConnect=0;fontColor=#232F3E;fillColor=#8C4FFF;strokeColor=#ffffff;dashed=0;verticalLabelPosition=bottom;verticalAlign=top;align=center;html=1;fontSize=12;fontStyle=0;aspect=fixed;shape=mxgraph.aws4.resourceIcon;resIcon=mxgraph.aws4.api_gateway;" parent="cm7tOoF1IvRiaTxDZUHN-2" vertex="1">
          <mxGeometry x="30" y="70" width="70" height="70" as="geometry" />
        </mxCell>
        <mxCell id="cm7tOoF1IvRiaTxDZUHN-13" value="" style="edgeStyle=orthogonalEdgeStyle;html=1;endArrow=none;elbow=vertical;startArrow=block;startFill=1;strokeColor=#545B64;rounded=1;fontSize=12;startSize=8;endSize=8;curved=0;flowAnimation=1;flowAnimationDirection=reverse;" parent="cm7tOoF1IvRiaTxDZUHN-2" source="pz8w-qD7uEeiCFy5i-9x-25" target="pz8w-qD7uEeiCFy5i-9x-2" edge="1">
          <mxGeometry width="100" relative="1" as="geometry">
            <mxPoint x="138" y="279" as="sourcePoint" />
            <mxPoint x="329" y="530" as="targetPoint" />
            <Array as="points">
              <mxPoint x="244" y="261" />
              <mxPoint x="244" y="261" />
            </Array>
          </mxGeometry>
        </mxCell>
        <mxCell id="cm7tOoF1IvRiaTxDZUHN-14" value="" style="edgeStyle=orthogonalEdgeStyle;html=1;endArrow=none;elbow=vertical;startArrow=block;startFill=1;strokeColor=#545B64;rounded=1;fontSize=12;startSize=8;endSize=8;curved=0;flowAnimation=1;flowAnimationDirection=reverse;entryX=0.5;entryY=0;entryDx=0;entryDy=0;" parent="cm7tOoF1IvRiaTxDZUHN-2" source="pz8w-qD7uEeiCFy5i-9x-25" target="pz8w-qD7uEeiCFy5i-9x-1" edge="1">
          <mxGeometry width="100" relative="1" as="geometry">
            <mxPoint x="138" y="279" as="sourcePoint" />
            <mxPoint x="329" y="530" as="targetPoint" />
            <Array as="points">
              <mxPoint x="325" y="310" />
              <mxPoint x="110" y="310" />
            </Array>
          </mxGeometry>
        </mxCell>
        <mxCell id="pz8w-qD7uEeiCFy5i-9x-4" value="" style="sketch=0;points=[[0,0,0],[0.25,0,0],[0.5,0,0],[0.75,0,0],[1,0,0],[0,1,0],[0.25,1,0],[0.5,1,0],[0.75,1,0],[1,1,0],[0,0.25,0],[0,0.5,0],[0,0.75,0],[1,0.25,0],[1,0.5,0],[1,0.75,0]];outlineConnect=0;fontColor=#232F3E;fillColor=#7AA116;strokeColor=#ffffff;dashed=0;verticalLabelPosition=bottom;verticalAlign=top;align=center;html=1;fontSize=12;fontStyle=0;aspect=fixed;shape=mxgraph.aws4.resourceIcon;resIcon=mxgraph.aws4.s3;" parent="cm7tOoF1IvRiaTxDZUHN-2" vertex="1">
          <mxGeometry x="75" y="440" width="70" height="70" as="geometry" />
        </mxCell>
        <mxCell id="cm7tOoF1IvRiaTxDZUHN-17" value="" style="edgeStyle=orthogonalEdgeStyle;html=1;endArrow=none;elbow=vertical;startArrow=block;startFill=1;strokeColor=#545B64;rounded=1;fontSize=12;startSize=8;endSize=8;curved=0;flowAnimation=1;flowAnimationDirection=reverse;" parent="cm7tOoF1IvRiaTxDZUHN-2" source="pz8w-qD7uEeiCFy5i-9x-28" target="pz8w-qD7uEeiCFy5i-9x-2" edge="1">
          <mxGeometry width="100" relative="1" as="geometry">
            <mxPoint x="740" y="619" as="sourcePoint" />
            <mxPoint x="400" y="513" as="targetPoint" />
            <Array as="points">
              <mxPoint x="190" y="475" />
              <mxPoint x="190" y="280" />
            </Array>
          </mxGeometry>
        </mxCell>
        <mxCell id="cm7tOoF1IvRiaTxDZUHN-19" value="" style="edgeStyle=orthogonalEdgeStyle;html=1;endArrow=none;elbow=vertical;startArrow=block;startFill=1;strokeColor=#545B64;rounded=0;fontSize=12;startSize=8;endSize=8;curved=1;flowAnimation=1;flowAnimationDirection=reverse;" parent="cm7tOoF1IvRiaTxDZUHN-2" source="pz8w-qD7uEeiCFy5i-9x-4" target="pz8w-qD7uEeiCFy5i-9x-1" edge="1">
          <mxGeometry width="100" relative="1" as="geometry">
            <mxPoint x="456" y="690" as="sourcePoint" />
            <mxPoint x="400" y="513" as="targetPoint" />
          </mxGeometry>
        </mxCell>
        <mxCell id="pz8w-qD7uEeiCFy5i-9x-15" value="" style="sketch=0;points=[[0,0,0],[0.25,0,0],[0.5,0,0],[0.75,0,0],[1,0,0],[0,1,0],[0.25,1,0],[0.5,1,0],[0.75,1,0],[1,1,0],[0,0.25,0],[0,0.5,0],[0,0.75,0],[1,0.25,0],[1,0.5,0],[1,0.75,0]];outlineConnect=0;fontColor=#232F3E;fillColor=#ED7100;strokeColor=#ffffff;dashed=0;verticalLabelPosition=bottom;verticalAlign=top;align=center;html=1;fontSize=12;fontStyle=0;aspect=fixed;shape=mxgraph.aws4.resourceIcon;resIcon=mxgraph.aws4.lambda;" parent="cm7tOoF1IvRiaTxDZUHN-2" vertex="1">
          <mxGeometry x="175" y="70" width="70" height="70" as="geometry" />
        </mxCell>
        <mxCell id="cm7tOoF1IvRiaTxDZUHN-10" value="" style="edgeStyle=orthogonalEdgeStyle;html=1;endArrow=none;elbow=vertical;startArrow=block;startFill=1;strokeColor=#545B64;rounded=1;fontSize=12;startSize=8;endSize=8;curved=0;flowAnimation=1;flowAnimationDirection=reverse;" parent="cm7tOoF1IvRiaTxDZUHN-2" source="pz8w-qD7uEeiCFy5i-9x-15" target="cm7tOoF1IvRiaTxDZUHN-9" edge="1">
          <mxGeometry width="100" relative="1" as="geometry">
            <mxPoint x="470" y="79" as="sourcePoint" />
            <mxPoint x="651" y="160" as="targetPoint" />
          </mxGeometry>
        </mxCell>
        <mxCell id="cm7tOoF1IvRiaTxDZUHN-12" value="" style="edgeStyle=orthogonalEdgeStyle;html=1;endArrow=none;elbow=vertical;startArrow=block;startFill=1;strokeColor=#545B64;rounded=1;fontSize=12;startSize=8;endSize=8;curved=0;flowAnimation=1;flowAnimationDirection=reverse;" parent="cm7tOoF1IvRiaTxDZUHN-2" source="cm7tOoF1IvRiaTxDZUHN-21" target="pz8w-qD7uEeiCFy5i-9x-15" edge="1">
          <mxGeometry width="100" relative="1" as="geometry">
            <mxPoint x="310" y="116.47058823529414" as="sourcePoint" />
            <mxPoint x="574" y="38" as="targetPoint" />
          </mxGeometry>
        </mxCell>
        <mxCell id="cm7tOoF1IvRiaTxDZUHN-21" value="" style="sketch=0;points=[[0,0,0],[0.25,0,0],[0.5,0,0],[0.75,0,0],[1,0,0],[0,1,0],[0.25,1,0],[0.5,1,0],[0.75,1,0],[1,1,0],[0,0.25,0],[0,0.5,0],[0,0.75,0],[1,0.25,0],[1,0.5,0],[1,0.75,0]];outlineConnect=0;fontColor=#232F3E;fillColor=#DD344C;strokeColor=#ffffff;dashed=0;verticalLabelPosition=bottom;verticalAlign=top;align=center;html=1;fontSize=12;fontStyle=0;aspect=fixed;shape=mxgraph.aws4.resourceIcon;resIcon=mxgraph.aws4.cognito;" parent="cm7tOoF1IvRiaTxDZUHN-2" vertex="1">
          <mxGeometry x="320" y="70" width="70" height="70" as="geometry" />
        </mxCell>
        <mxCell id="pz8w-qD7uEeiCFy5i-9x-28" value="" style="sketch=0;points=[[0,0,0],[0.25,0,0],[0.5,0,0],[0.75,0,0],[1,0,0],[0,1,0],[0.25,1,0],[0.5,1,0],[0.75,1,0],[1,1,0],[0,0.25,0],[0,0.5,0],[0,0.75,0],[1,0.25,0],[1,0.5,0],[1,0.75,0]];outlineConnect=0;fontColor=#232F3E;fillColor=#C925D1;strokeColor=#ffffff;dashed=0;verticalLabelPosition=bottom;verticalAlign=top;align=center;html=1;fontSize=12;fontStyle=0;aspect=fixed;shape=mxgraph.aws4.resourceIcon;resIcon=mxgraph.aws4.rds;" parent="cm7tOoF1IvRiaTxDZUHN-2" vertex="1">
          <mxGeometry x="240" y="440" width="70" height="70" as="geometry" />
        </mxCell>
        <mxCell id="cm7tOoF1IvRiaTxDZUHN-24" value="" style="edgeStyle=orthogonalEdgeStyle;html=1;endArrow=none;elbow=vertical;startArrow=block;startFill=1;strokeColor=#545B64;rounded=1;fontSize=12;startSize=8;endSize=8;curved=0;flowAnimation=1;flowAnimationDirection=reverse;" parent="cm7tOoF1IvRiaTxDZUHN-2" source="pz8w-qD7uEeiCFy5i-9x-2" target="cm7tOoF1IvRiaTxDZUHN-9" edge="1">
          <mxGeometry width="100" relative="1" as="geometry">
            <mxPoint x="200" y="115" as="sourcePoint" />
            <mxPoint x="110" y="115" as="targetPoint" />
            <Array as="points">
              <mxPoint x="110" y="170" />
              <mxPoint x="65" y="170" />
            </Array>
          </mxGeometry>
        </mxCell>
        <mxCell id="U4x3AkGuBbce3tRr4Vzq-5" value="" style="edgeStyle=orthogonalEdgeStyle;html=1;endArrow=none;elbow=vertical;startArrow=block;startFill=1;strokeColor=#545B64;rounded=1;fontSize=12;startSize=8;endSize=8;curved=0;flowAnimation=1;flowAnimationDirection=reverse;" parent="cm7tOoF1IvRiaTxDZUHN-2" source="pz8w-qD7uEeiCFy5i-9x-4" target="pz8w-qD7uEeiCFy5i-9x-2" edge="1">
          <mxGeometry width="100" relative="1" as="geometry">
            <mxPoint x="250" y="485" as="sourcePoint" />
            <mxPoint x="120" y="310" as="targetPoint" />
            <Array as="points">
              <mxPoint x="20" y="475" />
              <mxPoint x="20" y="270" />
            </Array>
          </mxGeometry>
        </mxCell>
        <mxCell id="U4x3AkGuBbce3tRr4Vzq-10" value="" style="shape=curlyBracket;whiteSpace=wrap;html=1;rounded=1;labelPosition=left;verticalLabelPosition=middle;align=right;verticalAlign=middle;direction=south;strokeColor=#545B64;strokeWidth=0.3;" parent="cm7tOoF1IvRiaTxDZUHN-2" vertex="1">
          <mxGeometry x="30" y="38" width="360" height="20" as="geometry" />
        </mxCell>
        <mxCell id="cm7tOoF1IvRiaTxDZUHN-48" value="notification" style="sketch=0;outlineConnect=0;gradientColor=none;fontColor=#545B64;strokeColor=none;fillColor=#879196;dashed=0;verticalLabelPosition=bottom;verticalAlign=top;align=center;html=1;fontSize=12;fontStyle=0;aspect=fixed;shape=mxgraph.aws4.illustration_notification;pointerEvents=1" parent="1" vertex="1">
          <mxGeometry x="958" y="586" width="100" height="81" as="geometry" />
        </mxCell>
        <mxCell id="cm7tOoF1IvRiaTxDZUHN-49" value="" style="edgeStyle=orthogonalEdgeStyle;html=1;endArrow=none;elbow=vertical;startArrow=block;startFill=1;strokeColor=#545B64;rounded=0;fontSize=12;startSize=8;endSize=8;curved=1;flowAnimation=1;flowAnimationDirection=reverse;" parent="1" source="cm7tOoF1IvRiaTxDZUHN-48" target="pz8w-qD7uEeiCFy5i-9x-21" edge="1">
          <mxGeometry width="100" relative="1" as="geometry">
            <mxPoint x="1019" y="547" as="sourcePoint" />
            <mxPoint x="549" y="487" as="targetPoint" />
          </mxGeometry>
        </mxCell>
        <mxCell id="cm7tOoF1IvRiaTxDZUHN-51" value="Client" style="sketch=0;outlineConnect=0;gradientColor=none;fontColor=#545B64;strokeColor=none;fillColor=#879196;dashed=0;verticalLabelPosition=bottom;verticalAlign=top;align=center;html=1;fontSize=12;fontStyle=0;aspect=fixed;shape=mxgraph.aws4.illustration_devices;pointerEvents=1" parent="1" vertex="1">
          <mxGeometry x="95" y="89" width="100" height="73" as="geometry" />
        </mxCell>
        <mxCell id="cm7tOoF1IvRiaTxDZUHN-53" value="" style="edgeStyle=orthogonalEdgeStyle;html=1;endArrow=none;elbow=vertical;startArrow=block;startFill=1;strokeColor=#545B64;rounded=0;fontSize=12;startSize=8;endSize=8;curved=1;flowAnimation=1;flowAnimationDirection=reverse;" parent="1" source="cm7tOoF1IvRiaTxDZUHN-9" target="cm7tOoF1IvRiaTxDZUHN-51" edge="1">
          <mxGeometry width="100" relative="1" as="geometry">
            <mxPoint x="569" y="242" as="sourcePoint" />
            <mxPoint x="479" y="242" as="targetPoint" />
          </mxGeometry>
        </mxCell>
        <mxCell id="U4x3AkGuBbce3tRr4Vzq-3" value="&lt;p style=&quot;text-align: justify; margin-top: 0px;&quot;&gt;&lt;font color=&quot;#596780&quot;&gt;&lt;b&gt;Amazon S3&lt;/b&gt;&lt;/font&gt;&lt;/p&gt;&lt;p style=&quot;text-align: justify; margin-top: 0px;&quot;&gt;&lt;span style=&quot;color: rgb(89, 103, 128); background-color: initial;&quot;&gt;Utilizaremos o Amazon S3 para armazenar arquivos de mídia pendentes de processamento e os frames gerados, garantindo escalabilidade, alta disponibilidade e integração com outros serviços AWS.&lt;/span&gt;&lt;/p&gt;" style="text;html=1;whiteSpace=wrap;overflow=hidden;rounded=0;container=0;" parent="1" vertex="1">
          <mxGeometry x="259" y="687" width="260" height="106" as="geometry" />
        </mxCell>
        <mxCell id="U4x3AkGuBbce3tRr4Vzq-4" style="edgeStyle=orthogonalEdgeStyle;rounded=0;orthogonalLoop=1;jettySize=auto;html=1;elbow=vertical;curved=1;strokeWidth=0.3;endArrow=none;endFill=0;strokeColor=#545B64;" parent="1" source="U4x3AkGuBbce3tRr4Vzq-3" target="pz8w-qD7uEeiCFy5i-9x-4" edge="1">
          <mxGeometry relative="1" as="geometry">
            <mxPoint x="319" y="765" as="sourcePoint" />
            <mxPoint x="451" y="707" as="targetPoint" />
            <Array as="points" />
          </mxGeometry>
        </mxCell>
        <mxCell id="U4x3AkGuBbce3tRr4Vzq-6" style="edgeStyle=orthogonalEdgeStyle;rounded=0;orthogonalLoop=1;jettySize=auto;html=1;elbow=vertical;curved=1;strokeWidth=0.3;endArrow=none;endFill=0;strokeColor=#545B64;" parent="1" source="pz8w-qD7uEeiCFy5i-9x-25" target="U4x3AkGuBbce3tRr4Vzq-7" edge="1">
          <mxGeometry relative="1" as="geometry">
            <mxPoint x="334" y="707" as="sourcePoint" />
            <mxPoint x="919" y="437" as="targetPoint" />
            <Array as="points" />
          </mxGeometry>
        </mxCell>
        <mxCell id="U4x3AkGuBbce3tRr4Vzq-7" value="&lt;p style=&quot;text-align: justify; margin-top: 0px;&quot;&gt;&lt;font color=&quot;#596780&quot;&gt;&lt;b&gt;Amazon SQS&lt;/b&gt;&lt;/font&gt;&lt;/p&gt;&lt;p style=&quot;text-align: justify; margin-top: 0px;&quot;&gt;&lt;span style=&quot;color: rgb(89, 103, 128); background-color: initial;&quot;&gt;Utilizamos o Amazon SQS como uma solução simples e eficiente para implementar comunicação assíncrona entre nossos serviços. Essa escolha permite o desacoplamento das aplicações, maior escalabilidade e confiabilidade no processamento de mensagens, garantindo que os serviços possam operar de forma independente e resiliente.&lt;/span&gt;&lt;/p&gt;" style="text;html=1;whiteSpace=wrap;overflow=hidden;rounded=0;container=0;" parent="1" vertex="1">
          <mxGeometry x="839" y="228" width="317" height="119" as="geometry" />
        </mxCell>
        <mxCell id="U4x3AkGuBbce3tRr4Vzq-8" style="edgeStyle=orthogonalEdgeStyle;rounded=0;orthogonalLoop=1;jettySize=auto;html=1;elbow=vertical;curved=1;strokeWidth=0.3;endArrow=none;endFill=0;strokeColor=#545B64;" parent="1" source="pz8w-qD7uEeiCFy5i-9x-21" target="U4x3AkGuBbce3tRr4Vzq-9" edge="1">
          <mxGeometry relative="1" as="geometry">
            <mxPoint x="749" y="541" as="sourcePoint" />
            <mxPoint x="919" y="596" as="targetPoint" />
            <Array as="points" />
          </mxGeometry>
        </mxCell>
        <mxCell id="U4x3AkGuBbce3tRr4Vzq-9" value="&lt;p style=&quot;text-align: justify; margin-top: 0px;&quot;&gt;&lt;font color=&quot;#596780&quot;&gt;&lt;b&gt;Amazon SNS&lt;/b&gt;&lt;/font&gt;&lt;/p&gt;&lt;p style=&quot;text-align: justify; margin-top: 0px;&quot;&gt;&lt;span style=&quot;color: rgb(89, 103, 128); background-color: initial;&quot;&gt;Escolhemos o Amazon SNS para a notificação de clientes por ser uma solução simples e econômica para o envio de mensagens SMS.&lt;/span&gt;&lt;/p&gt;" style="text;html=1;whiteSpace=wrap;overflow=hidden;rounded=0;container=0;" parent="1" vertex="1">
          <mxGeometry x="831" y="384.5" width="328" height="82.5" as="geometry" />
        </mxCell>
        <mxCell id="U4x3AkGuBbce3tRr4Vzq-11" style="edgeStyle=orthogonalEdgeStyle;rounded=0;orthogonalLoop=1;jettySize=auto;html=1;elbow=vertical;curved=1;strokeWidth=0.3;endArrow=none;endFill=0;strokeColor=#545B64;exitX=0.1;exitY=0.5;exitDx=0;exitDy=0;exitPerimeter=0;" parent="1" source="U4x3AkGuBbce3tRr4Vzq-10" target="U4x3AkGuBbce3tRr4Vzq-12" edge="1">
          <mxGeometry relative="1" as="geometry">
            <mxPoint x="595" y="83" as="sourcePoint" />
            <mxPoint x="598.090909090909" y="115" as="targetPoint" />
            <Array as="points" />
          </mxGeometry>
        </mxCell>
        <mxCell id="U4x3AkGuBbce3tRr4Vzq-12" value="&lt;p style=&quot;text-align: justify; margin-top: 0px;&quot;&gt;&lt;font color=&quot;#596780&quot;&gt;&lt;b&gt;API Gateway, Lambda e Cognito&lt;/b&gt;&lt;/font&gt;&lt;/p&gt;&lt;p style=&quot;text-align: justify; margin-top: 0px;&quot;&gt;&lt;font color=&quot;#596780&quot;&gt;Como parte da segurança da solução, utilizamos o API Gateway para receber e rotear as requisições, enquanto o AWS Lambda e o Cognito são responsáveis por realizar a autenticação e autorização antes de acessar os serviços.&lt;/font&gt;&lt;/p&gt;" style="text;html=1;whiteSpace=wrap;overflow=hidden;rounded=0;container=0;" parent="1" vertex="1">
          <mxGeometry x="445" y="6" width="322" height="109" as="geometry" />
        </mxCell>
        <mxCell id="U4x3AkGuBbce3tRr4Vzq-13" style="edgeStyle=orthogonalEdgeStyle;rounded=0;orthogonalLoop=1;jettySize=auto;html=1;elbow=vertical;curved=1;strokeWidth=0.3;endArrow=none;endFill=0;strokeColor=#545B64;" parent="1" source="cm7tOoF1IvRiaTxDZUHN-7" target="U4x3AkGuBbce3tRr4Vzq-14" edge="1">
          <mxGeometry relative="1" as="geometry">
            <mxPoint x="-107" y="443" as="sourcePoint" />
            <mxPoint x="63" y="498" as="targetPoint" />
            <Array as="points">
              <mxPoint x="378" y="375" />
              <mxPoint x="378" y="325" />
            </Array>
          </mxGeometry>
        </mxCell>
        <mxCell id="U4x3AkGuBbce3tRr4Vzq-14" value="&lt;p style=&quot;text-align: justify; margin-top: 0px;&quot;&gt;&lt;font color=&quot;#596780&quot;&gt;&lt;b&gt;Amazon EKS&lt;/b&gt;&lt;/font&gt;&lt;/p&gt;&lt;p style=&quot;text-align: justify; margin-top: 0px;&quot;&gt;&lt;span style=&quot;color: rgb(89, 103, 128); background-color: initial;&quot;&gt;Escolhemos o Amazon EKS para gerenciar a disponibilidade de aplicativos, dimensionar recursos de forma dinâmica, otimizar a computação, armazenar dados de clusters e executar funções críticas. Além disso, aproveitamos o desempenho robusto, a escalabilidade, a confiabilidade e a alta disponibilidade da infraestrutura da AWS, com integração nativa aos serviços da plataforma.&lt;/span&gt;&lt;/p&gt;" style="text;html=1;whiteSpace=wrap;overflow=hidden;rounded=0;container=0;" parent="1" vertex="1">
          <mxGeometry x="14" y="265.5" width="330" height="119" as="geometry" />
        </mxCell>
        <mxCell id="U4x3AkGuBbce3tRr4Vzq-15" value="&lt;p style=&quot;text-align: justify; margin-top: 0px;&quot;&gt;&lt;font color=&quot;#596780&quot;&gt;&lt;b&gt;Serviços Core&lt;/b&gt;&lt;/font&gt;&lt;/p&gt;&lt;p style=&quot;text-align: justify; margin-top: 0px;&quot;&gt;&lt;span style=&quot;color: rgb(89, 103, 128); background-color: initial;&quot;&gt;Nossos serviços são desenvolvidos utilizando Java e o framework Spring, proporcionando uma base sólida e confiável para a criação de aplicações escaláveis e robustas. O uso do Spring simplifica o desenvolvimento ao oferecer recursos como injeção de dependências, gerenciamento de transações e criação de APIs RESTful. Essa combinação permite maior produtividade, manutenção simplificada e integração eficiente com outras tecnologias e serviços.&lt;/span&gt;&lt;/p&gt;" style="text;html=1;whiteSpace=wrap;overflow=hidden;rounded=0;container=0;" parent="1" vertex="1">
          <mxGeometry x="14" y="448" width="330" height="160" as="geometry" />
        </mxCell>
        <mxCell id="U4x3AkGuBbce3tRr4Vzq-16" style="edgeStyle=orthogonalEdgeStyle;rounded=0;orthogonalLoop=1;jettySize=auto;html=1;elbow=vertical;curved=1;strokeWidth=0.3;endArrow=none;endFill=0;strokeColor=#545B64;" parent="1" source="pz8w-qD7uEeiCFy5i-9x-1" edge="1">
          <mxGeometry relative="1" as="geometry">
            <mxPoint x="409" y="442" as="sourcePoint" />
            <mxPoint x="140" y="441" as="targetPoint" />
            <Array as="points">
              <mxPoint x="419" y="425" />
              <mxPoint x="140" y="425" />
            </Array>
          </mxGeometry>
        </mxCell>
        <mxCell id="U4x3AkGuBbce3tRr4Vzq-18" style="edgeStyle=orthogonalEdgeStyle;rounded=0;orthogonalLoop=1;jettySize=auto;html=1;elbow=vertical;curved=1;strokeWidth=0.3;endArrow=none;endFill=0;strokeColor=#545B64;" parent="1" source="pz8w-qD7uEeiCFy5i-9x-2" edge="1">
          <mxGeometry relative="1" as="geometry">
            <mxPoint x="429" y="501" as="sourcePoint" />
            <mxPoint x="140" y="441" as="targetPoint" />
            <Array as="points" />
          </mxGeometry>
        </mxCell>
        <mxCell id="U4x3AkGuBbce3tRr4Vzq-21" style="edgeStyle=orthogonalEdgeStyle;rounded=0;orthogonalLoop=1;jettySize=auto;html=1;elbow=vertical;curved=1;strokeWidth=0.3;endArrow=none;endFill=0;strokeColor=#545B64;fontStyle=1" parent="1" source="U4x3AkGuBbce3tRr4Vzq-22" target="pz8w-qD7uEeiCFy5i-9x-28" edge="1">
          <mxGeometry relative="1" as="geometry">
            <mxPoint x="698.037037037037" y="692" as="sourcePoint" />
            <mxPoint x="788" y="642" as="targetPoint" />
            <Array as="points" />
          </mxGeometry>
        </mxCell>
        <mxCell id="U4x3AkGuBbce3tRr4Vzq-22" value="&lt;p style=&quot;text-align: justify; margin-top: 0px;&quot;&gt;&lt;font color=&quot;#596780&quot;&gt;&lt;b&gt;Amazon RDS&lt;/b&gt;&lt;/font&gt;&lt;/p&gt;&lt;p style=&quot;text-align: justify; margin-top: 0px;&quot;&gt;&lt;span style=&quot;color: rgb(89, 103, 128); background-color: initial;&quot;&gt;Utilizaremos o Amazon RDS para armazenar dados, pois é um serviço de banco de dados relacional que se alinha perfeitamente à nossa solução. Ele oferece alta performance, escalabilidade e gerenciamento simplificado, além de ser otimizado para reduzir o custo total de propriedade (TCO).&lt;/span&gt;&lt;/p&gt;" style="text;html=1;whiteSpace=wrap;overflow=hidden;rounded=0;container=0;" parent="1" vertex="1">
          <mxGeometry x="594" y="693" width="288" height="124" as="geometry" />
        </mxCell>
        <mxCell id="n2btJtfBKIa6bxDplJhF-13" style="edgeStyle=orthogonalEdgeStyle;rounded=0;orthogonalLoop=1;jettySize=auto;html=1;shape=link;" edge="1" parent="1" source="n2btJtfBKIa6bxDplJhF-1">
          <mxGeometry relative="1" as="geometry">
            <mxPoint x="350" y="2200" as="targetPoint" />
          </mxGeometry>
        </mxCell>
        <mxCell id="n2btJtfBKIa6bxDplJhF-1" value="Hacka Msc Mgmt Media" style="rounded=0;whiteSpace=wrap;html=1;fillColor=#ffff88;strokeColor=#36393d;" vertex="1" parent="1">
          <mxGeometry x="290" y="930" width="120" height="60" as="geometry" />
        </mxCell>
        <mxCell id="n2btJtfBKIa6bxDplJhF-14" style="edgeStyle=orthogonalEdgeStyle;rounded=0;orthogonalLoop=1;jettySize=auto;html=1;shape=link;" edge="1" parent="1" source="n2btJtfBKIa6bxDplJhF-2">
          <mxGeometry relative="1" as="geometry">
            <mxPoint x="500" y="2200" as="targetPoint" />
          </mxGeometry>
        </mxCell>
        <mxCell id="n2btJtfBKIa6bxDplJhF-2" value="RDS&lt;br&gt;Postgres" style="rounded=0;whiteSpace=wrap;html=1;fillColor=#cce5ff;strokeColor=#36393d;" vertex="1" parent="1">
          <mxGeometry x="440" y="930" width="120" height="60" as="geometry" />
        </mxCell>
        <mxCell id="n2btJtfBKIa6bxDplJhF-12" style="edgeStyle=orthogonalEdgeStyle;rounded=0;orthogonalLoop=1;jettySize=auto;html=1;shape=link;" edge="1" parent="1" source="n2btJtfBKIa6bxDplJhF-3">
          <mxGeometry relative="1" as="geometry">
            <mxPoint x="200" y="2190" as="targetPoint" />
            <Array as="points">
              <mxPoint x="200" y="1590" />
              <mxPoint x="201" y="2190" />
            </Array>
          </mxGeometry>
        </mxCell>
        <mxCell id="n2btJtfBKIa6bxDplJhF-3" value="Cognito" style="rounded=0;whiteSpace=wrap;html=1;fillColor=#ffe6cc;strokeColor=#d79b00;" vertex="1" parent="1">
          <mxGeometry x="139" y="930" width="120" height="60" as="geometry" />
        </mxCell>
        <mxCell id="n2btJtfBKIa6bxDplJhF-11" style="edgeStyle=orthogonalEdgeStyle;rounded=0;orthogonalLoop=1;jettySize=auto;html=1;shape=link;" edge="1" parent="1" source="n2btJtfBKIa6bxDplJhF-4">
          <mxGeometry relative="1" as="geometry">
            <mxPoint x="50" y="2200" as="targetPoint" />
          </mxGeometry>
        </mxCell>
        <mxCell id="n2btJtfBKIa6bxDplJhF-4" value="Lambda" style="rounded=0;whiteSpace=wrap;html=1;fillColor=#fff2cc;strokeColor=#d6b656;" vertex="1" parent="1">
          <mxGeometry x="-10" y="930" width="120" height="60" as="geometry" />
        </mxCell>
        <mxCell id="n2btJtfBKIa6bxDplJhF-10" style="edgeStyle=orthogonalEdgeStyle;rounded=0;orthogonalLoop=1;jettySize=auto;html=1;shape=link;entryX=0.145;entryY=0.992;entryDx=0;entryDy=0;entryPerimeter=0;" edge="1" parent="1" source="n2btJtfBKIa6bxDplJhF-5" target="n2btJtfBKIa6bxDplJhF-130">
          <mxGeometry relative="1" as="geometry">
            <mxPoint x="-100" y="2200" as="targetPoint" />
            <Array as="points">
              <mxPoint x="-100" y="1440" />
            </Array>
          </mxGeometry>
        </mxCell>
        <mxCell id="n2btJtfBKIa6bxDplJhF-5" value="API Gateway" style="rounded=0;whiteSpace=wrap;html=1;fillColor=#e1d5e7;strokeColor=#9673a6;" vertex="1" parent="1">
          <mxGeometry x="-160" y="930" width="120" height="60" as="geometry" />
        </mxCell>
        <mxCell id="n2btJtfBKIa6bxDplJhF-15" style="edgeStyle=orthogonalEdgeStyle;rounded=0;orthogonalLoop=1;jettySize=auto;html=1;shape=link;" edge="1" parent="1" source="n2btJtfBKIa6bxDplJhF-6">
          <mxGeometry relative="1" as="geometry">
            <mxPoint x="654" y="2200" as="targetPoint" />
          </mxGeometry>
        </mxCell>
        <mxCell id="n2btJtfBKIa6bxDplJhF-6" value="S3" style="rounded=0;whiteSpace=wrap;html=1;fillColor=#ffcccc;strokeColor=#36393d;" vertex="1" parent="1">
          <mxGeometry x="594" y="930" width="120" height="60" as="geometry" />
        </mxCell>
        <mxCell id="n2btJtfBKIa6bxDplJhF-17" style="edgeStyle=orthogonalEdgeStyle;rounded=0;orthogonalLoop=1;jettySize=auto;html=1;shape=link;strokeColor=#000000;" edge="1" parent="1" source="n2btJtfBKIa6bxDplJhF-7">
          <mxGeometry relative="1" as="geometry">
            <mxPoint x="940" y="2210" as="targetPoint" />
          </mxGeometry>
        </mxCell>
        <mxCell id="n2btJtfBKIa6bxDplJhF-7" value="Msc Pcs Midia" style="rounded=0;whiteSpace=wrap;html=1;fillColor=#d80073;fontColor=#ffffff;strokeColor=#A50040;" vertex="1" parent="1">
          <mxGeometry x="882" y="930" width="120" height="60" as="geometry" />
        </mxCell>
        <mxCell id="n2btJtfBKIa6bxDplJhF-18" style="edgeStyle=orthogonalEdgeStyle;rounded=0;orthogonalLoop=1;jettySize=auto;html=1;shape=link;" edge="1" parent="1" source="n2btJtfBKIa6bxDplJhF-8">
          <mxGeometry relative="1" as="geometry">
            <mxPoint x="1084" y="2210" as="targetPoint" />
          </mxGeometry>
        </mxCell>
        <mxCell id="n2btJtfBKIa6bxDplJhF-8" value="SNS" style="rounded=0;whiteSpace=wrap;html=1;fillColor=#a20025;fontColor=#ffffff;strokeColor=#6F0000;" vertex="1" parent="1">
          <mxGeometry x="1024" y="930" width="120" height="60" as="geometry" />
        </mxCell>
        <mxCell id="n2btJtfBKIa6bxDplJhF-16" style="edgeStyle=orthogonalEdgeStyle;rounded=0;orthogonalLoop=1;jettySize=auto;html=1;shape=link;" edge="1" parent="1" source="n2btJtfBKIa6bxDplJhF-9">
          <mxGeometry relative="1" as="geometry">
            <mxPoint x="800" y="2210" as="targetPoint" />
          </mxGeometry>
        </mxCell>
        <mxCell id="n2btJtfBKIa6bxDplJhF-9" value="SQS" style="rounded=0;whiteSpace=wrap;html=1;fillColor=#1ba1e2;strokeColor=#006EAF;fontColor=#ffffff;" vertex="1" parent="1">
          <mxGeometry x="740" y="930" width="120" height="60" as="geometry" />
        </mxCell>
        <mxCell id="n2btJtfBKIa6bxDplJhF-29" value="" style="endArrow=classic;html=1;rounded=0;" edge="1" parent="1">
          <mxGeometry width="50" height="50" relative="1" as="geometry">
            <mxPoint x="-250" y="1020" as="sourcePoint" />
            <mxPoint x="-100" y="1020" as="targetPoint" />
          </mxGeometry>
        </mxCell>
        <mxCell id="n2btJtfBKIa6bxDplJhF-31" value="" style="endArrow=classic;html=1;rounded=0;" edge="1" parent="1">
          <mxGeometry width="50" height="50" relative="1" as="geometry">
            <mxPoint x="-100" y="1040" as="sourcePoint" />
            <mxPoint x="50" y="1040" as="targetPoint" />
          </mxGeometry>
        </mxCell>
        <mxCell id="n2btJtfBKIa6bxDplJhF-36" value="Valida Token" style="edgeLabel;html=1;align=center;verticalAlign=middle;resizable=0;points=[];" vertex="1" connectable="0" parent="n2btJtfBKIa6bxDplJhF-31">
          <mxGeometry x="-0.2602" y="3" relative="1" as="geometry">
            <mxPoint x="15" y="-7" as="offset" />
          </mxGeometry>
        </mxCell>
        <mxCell id="n2btJtfBKIa6bxDplJhF-32" value="" style="endArrow=classic;html=1;rounded=0;" edge="1" parent="1">
          <mxGeometry width="50" height="50" relative="1" as="geometry">
            <mxPoint x="50" y="1060" as="sourcePoint" />
            <mxPoint x="200" y="1060" as="targetPoint" />
          </mxGeometry>
        </mxCell>
        <mxCell id="n2btJtfBKIa6bxDplJhF-33" value="" style="endArrow=classic;html=1;rounded=0;dashed=1;" edge="1" parent="1">
          <mxGeometry width="50" height="50" relative="1" as="geometry">
            <mxPoint x="200" y="1080" as="sourcePoint" />
            <mxPoint x="50" y="1080" as="targetPoint" />
          </mxGeometry>
        </mxCell>
        <mxCell id="n2btJtfBKIa6bxDplJhF-34" value="" style="endArrow=classic;html=1;rounded=0;dashed=1;" edge="1" parent="1">
          <mxGeometry width="50" height="50" relative="1" as="geometry">
            <mxPoint x="50" y="1100" as="sourcePoint" />
            <mxPoint x="-100" y="1100" as="targetPoint" />
          </mxGeometry>
        </mxCell>
        <mxCell id="n2btJtfBKIa6bxDplJhF-35" value="" style="endArrow=classic;html=1;rounded=0;" edge="1" parent="1">
          <mxGeometry width="50" height="50" relative="1" as="geometry">
            <mxPoint x="-100" y="1130" as="sourcePoint" />
            <mxPoint x="350" y="1130" as="targetPoint" />
          </mxGeometry>
        </mxCell>
        <mxCell id="n2btJtfBKIa6bxDplJhF-37" value="&lt;span style=&quot;color: rgb(0, 0, 0); font-family: Helvetica; font-size: 11px; font-style: normal; font-variant-ligatures: normal; font-variant-caps: normal; font-weight: 400; letter-spacing: normal; orphans: 2; text-align: center; text-indent: 0px; text-transform: none; widows: 2; word-spacing: 0px; -webkit-text-stroke-width: 0px; white-space: nowrap; background-color: rgb(255, 255, 255); text-decoration-thickness: initial; text-decoration-style: initial; text-decoration-color: initial; display: inline !important; float: none;&quot;&gt;Valida Token&lt;/span&gt;" style="text;whiteSpace=wrap;html=1;" vertex="1" parent="1">
          <mxGeometry x="80" y="1040" width="100" height="20" as="geometry" />
        </mxCell>
        <mxCell id="n2btJtfBKIa6bxDplJhF-39" value="" style="endArrow=classic;html=1;rounded=0;" edge="1" parent="1">
          <mxGeometry width="50" height="50" relative="1" as="geometry">
            <mxPoint x="350" y="1150" as="sourcePoint" />
            <mxPoint x="500" y="1150" as="targetPoint" />
          </mxGeometry>
        </mxCell>
        <mxCell id="n2btJtfBKIa6bxDplJhF-40" value="Salva o processamento" style="edgeLabel;html=1;align=center;verticalAlign=middle;resizable=0;points=[];" vertex="1" connectable="0" parent="n2btJtfBKIa6bxDplJhF-39">
          <mxGeometry x="-0.2602" y="3" relative="1" as="geometry">
            <mxPoint x="15" y="-7" as="offset" />
          </mxGeometry>
        </mxCell>
        <mxCell id="n2btJtfBKIa6bxDplJhF-41" value="" style="endArrow=classic;html=1;rounded=0;" edge="1" parent="1">
          <mxGeometry width="50" height="50" relative="1" as="geometry">
            <mxPoint x="350" y="1190" as="sourcePoint" />
            <mxPoint x="650" y="1190" as="targetPoint" />
          </mxGeometry>
        </mxCell>
        <mxCell id="n2btJtfBKIa6bxDplJhF-42" value="Salva no S3" style="edgeLabel;html=1;align=center;verticalAlign=middle;resizable=0;points=[];" vertex="1" connectable="0" parent="n2btJtfBKIa6bxDplJhF-41">
          <mxGeometry x="-0.2602" y="3" relative="1" as="geometry">
            <mxPoint x="29" y="-7" as="offset" />
          </mxGeometry>
        </mxCell>
        <mxCell id="n2btJtfBKIa6bxDplJhF-45" value="" style="endArrow=classic;html=1;rounded=0;" edge="1" parent="1">
          <mxGeometry width="50" height="50" relative="1" as="geometry">
            <mxPoint x="350" y="1230" as="sourcePoint" />
            <mxPoint x="800" y="1230" as="targetPoint" />
          </mxGeometry>
        </mxCell>
        <mxCell id="n2btJtfBKIa6bxDplJhF-46" value="Envia para a fila de processamento" style="edgeLabel;html=1;align=center;verticalAlign=middle;resizable=0;points=[];" vertex="1" connectable="0" parent="n2btJtfBKIa6bxDplJhF-45">
          <mxGeometry x="-0.2602" y="3" relative="1" as="geometry">
            <mxPoint x="29" y="-7" as="offset" />
          </mxGeometry>
        </mxCell>
        <mxCell id="n2btJtfBKIa6bxDplJhF-47" value="" style="endArrow=classic;html=1;rounded=0;dashed=1;" edge="1" parent="1">
          <mxGeometry width="50" height="50" relative="1" as="geometry">
            <mxPoint x="350" y="1250" as="sourcePoint" />
            <mxPoint x="-250" y="1250" as="targetPoint" />
          </mxGeometry>
        </mxCell>
        <mxCell id="n2btJtfBKIa6bxDplJhF-52" value="Devolve o ID do processamento e status" style="edgeLabel;html=1;align=center;verticalAlign=middle;resizable=0;points=[];" vertex="1" connectable="0" parent="n2btJtfBKIa6bxDplJhF-47">
          <mxGeometry x="0.122" y="-1" relative="1" as="geometry">
            <mxPoint x="1" y="-8" as="offset" />
          </mxGeometry>
        </mxCell>
        <mxCell id="n2btJtfBKIa6bxDplJhF-49" style="edgeStyle=orthogonalEdgeStyle;rounded=0;orthogonalLoop=1;jettySize=auto;html=1;shadow=0;shape=link;" edge="1" parent="1" source="n2btJtfBKIa6bxDplJhF-50">
          <mxGeometry relative="1" as="geometry">
            <mxPoint x="-250" y="2210" as="targetPoint" />
          </mxGeometry>
        </mxCell>
        <mxCell id="n2btJtfBKIa6bxDplJhF-50" value="User" style="rounded=0;whiteSpace=wrap;html=1;fillColor=#d5e8d4;strokeColor=#82b366;" vertex="1" parent="1">
          <mxGeometry x="-310" y="930" width="120" height="60" as="geometry" />
        </mxCell>
        <mxCell id="n2btJtfBKIa6bxDplJhF-53" value="" style="endArrow=classic;html=1;rounded=0;" edge="1" parent="1">
          <mxGeometry width="50" height="50" relative="1" as="geometry">
            <mxPoint x="800" y="1280" as="sourcePoint" />
            <mxPoint x="940" y="1280" as="targetPoint" />
          </mxGeometry>
        </mxCell>
        <mxCell id="n2btJtfBKIa6bxDplJhF-54" value="Notifica para processameto" style="edgeLabel;html=1;align=center;verticalAlign=middle;resizable=0;points=[];" vertex="1" connectable="0" parent="n2btJtfBKIa6bxDplJhF-53">
          <mxGeometry x="-0.2602" y="3" relative="1" as="geometry">
            <mxPoint x="18" y="-7" as="offset" />
          </mxGeometry>
        </mxCell>
        <mxCell id="n2btJtfBKIa6bxDplJhF-55" value="" style="shape=image;html=1;verticalLabelPosition=bottom;verticalAlign=top;imageAspect=1;aspect=fixed;image=img/clipart/Gear_128x128.png" vertex="1" parent="1">
          <mxGeometry x="924.95" y="1440" width="34.1" height="40" as="geometry" />
        </mxCell>
        <mxCell id="n2btJtfBKIa6bxDplJhF-56" value="" style="endArrow=classic;html=1;rounded=0;dashed=1;" edge="1" parent="1">
          <mxGeometry width="50" height="50" relative="1" as="geometry">
            <mxPoint x="940" y="1330" as="sourcePoint" />
            <mxPoint x="800" y="1330" as="targetPoint" />
          </mxGeometry>
        </mxCell>
        <mxCell id="n2btJtfBKIa6bxDplJhF-57" value="&lt;span style=&quot;font-size: 11px; background-color: rgb(255, 255, 255);&quot;&gt;Envia para a fila que&lt;/span&gt;&lt;div&gt;&lt;span style=&quot;font-size: 11px; background-color: rgb(255, 255, 255);&quot;&gt;&amp;nbsp;esta processamento&lt;/span&gt;&lt;/div&gt;" style="text;html=1;align=center;verticalAlign=middle;resizable=0;points=[];autosize=1;strokeColor=none;fillColor=none;" vertex="1" parent="1">
          <mxGeometry x="805" y="1290" width="130" height="40" as="geometry" />
        </mxCell>
        <mxCell id="n2btJtfBKIa6bxDplJhF-59" value="" style="endArrow=classic;html=1;rounded=0;" edge="1" parent="1">
          <mxGeometry width="50" height="50" relative="1" as="geometry">
            <mxPoint x="800" y="1360" as="sourcePoint" />
            <mxPoint x="350" y="1360" as="targetPoint" />
          </mxGeometry>
        </mxCell>
        <mxCell id="n2btJtfBKIa6bxDplJhF-60" value="Notifica que esta em processamento" style="edgeLabel;html=1;align=center;verticalAlign=middle;resizable=0;points=[];" vertex="1" connectable="0" parent="n2btJtfBKIa6bxDplJhF-59">
          <mxGeometry x="-0.2602" y="3" relative="1" as="geometry">
            <mxPoint x="-49" y="-13" as="offset" />
          </mxGeometry>
        </mxCell>
        <mxCell id="n2btJtfBKIa6bxDplJhF-61" value="" style="endArrow=classic;html=1;rounded=0;" edge="1" parent="1">
          <mxGeometry width="50" height="50" relative="1" as="geometry">
            <mxPoint x="350" y="1390" as="sourcePoint" />
            <mxPoint x="500" y="1390" as="targetPoint" />
          </mxGeometry>
        </mxCell>
        <mxCell id="n2btJtfBKIa6bxDplJhF-62" value="Atualiza o Status" style="edgeLabel;html=1;align=center;verticalAlign=middle;resizable=0;points=[];" vertex="1" connectable="0" parent="n2btJtfBKIa6bxDplJhF-61">
          <mxGeometry x="-0.2602" y="3" relative="1" as="geometry">
            <mxPoint x="15" y="-7" as="offset" />
          </mxGeometry>
        </mxCell>
        <mxCell id="n2btJtfBKIa6bxDplJhF-63" value="" style="endArrow=classic;html=1;rounded=0;startArrow=classic;startFill=1;" edge="1" parent="1">
          <mxGeometry width="50" height="50" relative="1" as="geometry">
            <mxPoint x="940" y="1420" as="sourcePoint" />
            <mxPoint x="655" y="1420" as="targetPoint" />
          </mxGeometry>
        </mxCell>
        <mxCell id="n2btJtfBKIa6bxDplJhF-66" value="Busca o Video" style="edgeLabel;html=1;align=center;verticalAlign=middle;resizable=0;points=[];" vertex="1" connectable="0" parent="n2btJtfBKIa6bxDplJhF-63">
          <mxGeometry x="0.0062" y="-3" relative="1" as="geometry">
            <mxPoint x="6" y="-7" as="offset" />
          </mxGeometry>
        </mxCell>
        <mxCell id="n2btJtfBKIa6bxDplJhF-69" value="Faz os frames" style="text;html=1;align=center;verticalAlign=middle;resizable=0;points=[];autosize=1;strokeColor=none;fillColor=none;" vertex="1" parent="1">
          <mxGeometry x="947.5" y="1445" width="100" height="30" as="geometry" />
        </mxCell>
        <mxCell id="n2btJtfBKIa6bxDplJhF-72" value="" style="endArrow=classic;html=1;rounded=0;startArrow=none;startFill=0;" edge="1" parent="1">
          <mxGeometry width="50" height="50" relative="1" as="geometry">
            <mxPoint x="940" y="1500" as="sourcePoint" />
            <mxPoint x="655" y="1500" as="targetPoint" />
          </mxGeometry>
        </mxCell>
        <mxCell id="n2btJtfBKIa6bxDplJhF-73" value="Salva os Frames no S3" style="edgeLabel;html=1;align=center;verticalAlign=middle;resizable=0;points=[];" vertex="1" connectable="0" parent="n2btJtfBKIa6bxDplJhF-72">
          <mxGeometry x="0.0062" y="-3" relative="1" as="geometry">
            <mxPoint x="6" y="-7" as="offset" />
          </mxGeometry>
        </mxCell>
        <mxCell id="n2btJtfBKIa6bxDplJhF-75" value="" style="endArrow=classic;html=1;rounded=0;" edge="1" parent="1">
          <mxGeometry width="50" height="50" relative="1" as="geometry">
            <mxPoint x="800" y="1570" as="sourcePoint" />
            <mxPoint x="350" y="1570" as="targetPoint" />
          </mxGeometry>
        </mxCell>
        <mxCell id="n2btJtfBKIa6bxDplJhF-76" value="Notifica que ja foi processado" style="edgeLabel;html=1;align=center;verticalAlign=middle;resizable=0;points=[];" vertex="1" connectable="0" parent="n2btJtfBKIa6bxDplJhF-75">
          <mxGeometry x="-0.2602" y="3" relative="1" as="geometry">
            <mxPoint x="-63" y="-13" as="offset" />
          </mxGeometry>
        </mxCell>
        <mxCell id="n2btJtfBKIa6bxDplJhF-77" value="" style="endArrow=classic;html=1;rounded=0;" edge="1" parent="1">
          <mxGeometry width="50" height="50" relative="1" as="geometry">
            <mxPoint x="800" y="1620" as="sourcePoint" />
            <mxPoint x="1080" y="1620" as="targetPoint" />
          </mxGeometry>
        </mxCell>
        <mxCell id="n2btJtfBKIa6bxDplJhF-78" value="Notifica que foi processado via SMS" style="edgeLabel;html=1;align=center;verticalAlign=middle;resizable=0;points=[];" vertex="1" connectable="0" parent="n2btJtfBKIa6bxDplJhF-77">
          <mxGeometry x="-0.2602" y="3" relative="1" as="geometry">
            <mxPoint x="18" y="-7" as="offset" />
          </mxGeometry>
        </mxCell>
        <mxCell id="n2btJtfBKIa6bxDplJhF-83" value="" style="endArrow=classic;html=1;rounded=0;dashed=1;entryX=-0.02;entryY=1.043;entryDx=0;entryDy=0;entryPerimeter=0;" edge="1" parent="1" target="n2btJtfBKIa6bxDplJhF-84">
          <mxGeometry width="50" height="50" relative="1" as="geometry">
            <mxPoint x="940" y="1552" as="sourcePoint" />
            <mxPoint x="795" y="1550" as="targetPoint" />
          </mxGeometry>
        </mxCell>
        <mxCell id="n2btJtfBKIa6bxDplJhF-84" value="&lt;span style=&quot;font-size: 11px; background-color: rgb(255, 255, 255);&quot;&gt;Envia para a fila que&lt;/span&gt;&lt;div&gt;&lt;span style=&quot;font-size: 11px; background-color: rgb(255, 255, 255);&quot;&gt;&amp;nbsp;foi processado&lt;/span&gt;&lt;/div&gt;" style="text;html=1;align=center;verticalAlign=middle;resizable=0;points=[];autosize=1;strokeColor=none;fillColor=none;" vertex="1" parent="1">
          <mxGeometry x="805" y="1510" width="120" height="40" as="geometry" />
        </mxCell>
        <mxCell id="n2btJtfBKIa6bxDplJhF-85" value="" style="endArrow=classic;html=1;rounded=0;" edge="1" parent="1">
          <mxGeometry width="50" height="50" relative="1" as="geometry">
            <mxPoint x="350" y="1410" as="sourcePoint" />
            <mxPoint x="500" y="1410" as="targetPoint" />
          </mxGeometry>
        </mxCell>
        <mxCell id="n2btJtfBKIa6bxDplJhF-86" value="Atualiza o Status" style="edgeLabel;html=1;align=center;verticalAlign=middle;resizable=0;points=[];" vertex="1" connectable="0" parent="n2btJtfBKIa6bxDplJhF-85">
          <mxGeometry x="-0.2602" y="3" relative="1" as="geometry">
            <mxPoint x="15" y="-7" as="offset" />
          </mxGeometry>
        </mxCell>
        <mxCell id="n2btJtfBKIa6bxDplJhF-87" value="" style="endArrow=classic;html=1;rounded=0;" edge="1" parent="1">
          <mxGeometry width="50" height="50" relative="1" as="geometry">
            <mxPoint x="-250" y="1920" as="sourcePoint" />
            <mxPoint x="-100" y="1920" as="targetPoint" />
          </mxGeometry>
        </mxCell>
        <mxCell id="n2btJtfBKIa6bxDplJhF-89" value="" style="endArrow=classic;html=1;rounded=0;" edge="1" parent="1">
          <mxGeometry width="50" height="50" relative="1" as="geometry">
            <mxPoint x="-100" y="1940" as="sourcePoint" />
            <mxPoint x="50" y="1940" as="targetPoint" />
          </mxGeometry>
        </mxCell>
        <mxCell id="n2btJtfBKIa6bxDplJhF-90" value="Valida Token" style="edgeLabel;html=1;align=center;verticalAlign=middle;resizable=0;points=[];" vertex="1" connectable="0" parent="n2btJtfBKIa6bxDplJhF-89">
          <mxGeometry x="-0.2602" y="3" relative="1" as="geometry">
            <mxPoint x="15" y="-7" as="offset" />
          </mxGeometry>
        </mxCell>
        <mxCell id="n2btJtfBKIa6bxDplJhF-91" value="" style="endArrow=classic;html=1;rounded=0;" edge="1" parent="1">
          <mxGeometry width="50" height="50" relative="1" as="geometry">
            <mxPoint x="50" y="1960" as="sourcePoint" />
            <mxPoint x="200" y="1960" as="targetPoint" />
          </mxGeometry>
        </mxCell>
        <mxCell id="n2btJtfBKIa6bxDplJhF-92" value="" style="endArrow=classic;html=1;rounded=0;dashed=1;" edge="1" parent="1">
          <mxGeometry width="50" height="50" relative="1" as="geometry">
            <mxPoint x="200" y="1980" as="sourcePoint" />
            <mxPoint x="50" y="1980" as="targetPoint" />
          </mxGeometry>
        </mxCell>
        <mxCell id="n2btJtfBKIa6bxDplJhF-93" value="" style="endArrow=classic;html=1;rounded=0;dashed=1;" edge="1" parent="1">
          <mxGeometry width="50" height="50" relative="1" as="geometry">
            <mxPoint x="50" y="2000" as="sourcePoint" />
            <mxPoint x="-100" y="2000" as="targetPoint" />
          </mxGeometry>
        </mxCell>
        <mxCell id="n2btJtfBKIa6bxDplJhF-94" value="" style="endArrow=classic;html=1;rounded=0;" edge="1" parent="1">
          <mxGeometry width="50" height="50" relative="1" as="geometry">
            <mxPoint x="-100" y="2030" as="sourcePoint" />
            <mxPoint x="350" y="2030" as="targetPoint" />
          </mxGeometry>
        </mxCell>
        <mxCell id="n2btJtfBKIa6bxDplJhF-95" value="&lt;span style=&quot;color: rgb(0, 0, 0); font-family: Helvetica; font-size: 11px; font-style: normal; font-variant-ligatures: normal; font-variant-caps: normal; font-weight: 400; letter-spacing: normal; orphans: 2; text-align: center; text-indent: 0px; text-transform: none; widows: 2; word-spacing: 0px; -webkit-text-stroke-width: 0px; white-space: nowrap; background-color: rgb(255, 255, 255); text-decoration-thickness: initial; text-decoration-style: initial; text-decoration-color: initial; display: inline !important; float: none;&quot;&gt;Valida Token&lt;/span&gt;" style="text;whiteSpace=wrap;html=1;" vertex="1" parent="1">
          <mxGeometry x="80" y="1940" width="100" height="20" as="geometry" />
        </mxCell>
        <mxCell id="n2btJtfBKIa6bxDplJhF-96" value="" style="endArrow=classic;html=1;rounded=0;startArrow=classic;startFill=1;" edge="1" parent="1">
          <mxGeometry width="50" height="50" relative="1" as="geometry">
            <mxPoint x="350" y="2090" as="sourcePoint" />
            <mxPoint x="650" y="2090" as="targetPoint" />
          </mxGeometry>
        </mxCell>
        <mxCell id="n2btJtfBKIa6bxDplJhF-97" value="Busca no S3" style="edgeLabel;html=1;align=center;verticalAlign=middle;resizable=0;points=[];" vertex="1" connectable="0" parent="n2btJtfBKIa6bxDplJhF-96">
          <mxGeometry x="-0.2602" y="3" relative="1" as="geometry">
            <mxPoint x="29" y="-7" as="offset" />
          </mxGeometry>
        </mxCell>
        <mxCell id="n2btJtfBKIa6bxDplJhF-99" value="" style="shape=image;html=1;verticalLabelPosition=bottom;verticalAlign=top;imageAspect=1;aspect=fixed;image=img/clipart/Gear_128x128.png" vertex="1" parent="1">
          <mxGeometry x="330" y="2110" width="34.1" height="40" as="geometry" />
        </mxCell>
        <mxCell id="n2btJtfBKIa6bxDplJhF-100" value="Gera um link temporario&lt;br&gt;&amp;nbsp;de 5 minutos" style="text;html=1;align=center;verticalAlign=middle;resizable=0;points=[];autosize=1;strokeColor=none;fillColor=none;" vertex="1" parent="1">
          <mxGeometry x="359.99999999999994" y="2110" width="150" height="40" as="geometry" />
        </mxCell>
        <mxCell id="n2btJtfBKIa6bxDplJhF-101" value="" style="endArrow=classic;html=1;rounded=0;dashed=1;" edge="1" parent="1">
          <mxGeometry width="50" height="50" relative="1" as="geometry">
            <mxPoint x="350" y="2170" as="sourcePoint" />
            <mxPoint x="-250" y="2170" as="targetPoint" />
          </mxGeometry>
        </mxCell>
        <mxCell id="n2btJtfBKIa6bxDplJhF-102" value="Devolve o link temporario" style="edgeLabel;html=1;align=center;verticalAlign=middle;resizable=0;points=[];" vertex="1" connectable="0" parent="n2btJtfBKIa6bxDplJhF-101">
          <mxGeometry x="0.122" y="-1" relative="1" as="geometry">
            <mxPoint x="1" y="-8" as="offset" />
          </mxGeometry>
        </mxCell>
        <mxCell id="n2btJtfBKIa6bxDplJhF-104" value="" style="endArrow=classic;html=1;rounded=0;dashed=1;" edge="1" parent="1">
          <mxGeometry width="50" height="50" relative="1" as="geometry">
            <mxPoint x="1080" y="1640" as="sourcePoint" />
            <mxPoint x="-250" y="1640" as="targetPoint" />
          </mxGeometry>
        </mxCell>
        <mxCell id="n2btJtfBKIa6bxDplJhF-105" value="Notifica o user via SMS" style="edgeLabel;html=1;align=center;verticalAlign=middle;resizable=0;points=[];" vertex="1" connectable="0" parent="n2btJtfBKIa6bxDplJhF-104">
          <mxGeometry x="0.122" y="-1" relative="1" as="geometry">
            <mxPoint x="1" y="-8" as="offset" />
          </mxGeometry>
        </mxCell>
        <mxCell id="n2btJtfBKIa6bxDplJhF-106" value="" style="endArrow=classic;html=1;rounded=0;startArrow=classic;startFill=1;" edge="1" parent="1">
          <mxGeometry width="50" height="50" relative="1" as="geometry">
            <mxPoint x="350" y="2060" as="sourcePoint" />
            <mxPoint x="500" y="2060" as="targetPoint" />
          </mxGeometry>
        </mxCell>
        <mxCell id="n2btJtfBKIa6bxDplJhF-107" value="Busca registro" style="edgeLabel;html=1;align=center;verticalAlign=middle;resizable=0;points=[];" vertex="1" connectable="0" parent="n2btJtfBKIa6bxDplJhF-106">
          <mxGeometry x="-0.2602" y="3" relative="1" as="geometry">
            <mxPoint x="15" y="-7" as="offset" />
          </mxGeometry>
        </mxCell>
        <mxCell id="n2btJtfBKIa6bxDplJhF-108" value="" style="endArrow=classic;html=1;rounded=0;" edge="1" parent="1">
          <mxGeometry width="50" height="50" relative="1" as="geometry">
            <mxPoint x="-250" y="1700" as="sourcePoint" />
            <mxPoint x="-100" y="1700" as="targetPoint" />
          </mxGeometry>
        </mxCell>
        <mxCell id="n2btJtfBKIa6bxDplJhF-110" value="" style="endArrow=classic;html=1;rounded=0;" edge="1" parent="1">
          <mxGeometry width="50" height="50" relative="1" as="geometry">
            <mxPoint x="-100" y="1720" as="sourcePoint" />
            <mxPoint x="50" y="1720" as="targetPoint" />
          </mxGeometry>
        </mxCell>
        <mxCell id="n2btJtfBKIa6bxDplJhF-111" value="Valida Token" style="edgeLabel;html=1;align=center;verticalAlign=middle;resizable=0;points=[];" vertex="1" connectable="0" parent="n2btJtfBKIa6bxDplJhF-110">
          <mxGeometry x="-0.2602" y="3" relative="1" as="geometry">
            <mxPoint x="15" y="-7" as="offset" />
          </mxGeometry>
        </mxCell>
        <mxCell id="n2btJtfBKIa6bxDplJhF-112" value="" style="endArrow=classic;html=1;rounded=0;" edge="1" parent="1">
          <mxGeometry width="50" height="50" relative="1" as="geometry">
            <mxPoint x="50" y="1740" as="sourcePoint" />
            <mxPoint x="200" y="1740" as="targetPoint" />
          </mxGeometry>
        </mxCell>
        <mxCell id="n2btJtfBKIa6bxDplJhF-113" value="" style="endArrow=classic;html=1;rounded=0;dashed=1;" edge="1" parent="1">
          <mxGeometry width="50" height="50" relative="1" as="geometry">
            <mxPoint x="200" y="1760" as="sourcePoint" />
            <mxPoint x="50" y="1760" as="targetPoint" />
          </mxGeometry>
        </mxCell>
        <mxCell id="n2btJtfBKIa6bxDplJhF-114" value="" style="endArrow=classic;html=1;rounded=0;dashed=1;" edge="1" parent="1">
          <mxGeometry width="50" height="50" relative="1" as="geometry">
            <mxPoint x="50" y="1780" as="sourcePoint" />
            <mxPoint x="-100" y="1780" as="targetPoint" />
          </mxGeometry>
        </mxCell>
        <mxCell id="n2btJtfBKIa6bxDplJhF-115" value="" style="endArrow=classic;html=1;rounded=0;" edge="1" parent="1">
          <mxGeometry width="50" height="50" relative="1" as="geometry">
            <mxPoint x="-100" y="1810" as="sourcePoint" />
            <mxPoint x="350" y="1810" as="targetPoint" />
          </mxGeometry>
        </mxCell>
        <mxCell id="n2btJtfBKIa6bxDplJhF-116" value="&lt;span style=&quot;color: rgb(0, 0, 0); font-family: Helvetica; font-size: 11px; font-style: normal; font-variant-ligatures: normal; font-variant-caps: normal; font-weight: 400; letter-spacing: normal; orphans: 2; text-align: center; text-indent: 0px; text-transform: none; widows: 2; word-spacing: 0px; -webkit-text-stroke-width: 0px; white-space: nowrap; background-color: rgb(255, 255, 255); text-decoration-thickness: initial; text-decoration-style: initial; text-decoration-color: initial; display: inline !important; float: none;&quot;&gt;Valida Token&lt;/span&gt;" style="text;whiteSpace=wrap;html=1;" vertex="1" parent="1">
          <mxGeometry x="80" y="1720" width="100" height="20" as="geometry" />
        </mxCell>
        <mxCell id="n2btJtfBKIa6bxDplJhF-117" value="" style="endArrow=classic;html=1;rounded=0;startArrow=classic;startFill=1;" edge="1" parent="1">
          <mxGeometry width="50" height="50" relative="1" as="geometry">
            <mxPoint x="350" y="1840" as="sourcePoint" />
            <mxPoint x="500" y="1840" as="targetPoint" />
          </mxGeometry>
        </mxCell>
        <mxCell id="n2btJtfBKIa6bxDplJhF-118" value="Busca registro" style="edgeLabel;html=1;align=center;verticalAlign=middle;resizable=0;points=[];" vertex="1" connectable="0" parent="n2btJtfBKIa6bxDplJhF-117">
          <mxGeometry x="-0.2602" y="3" relative="1" as="geometry">
            <mxPoint x="15" y="-7" as="offset" />
          </mxGeometry>
        </mxCell>
        <mxCell id="n2btJtfBKIa6bxDplJhF-120" value="" style="endArrow=classic;html=1;rounded=0;dashed=1;" edge="1" parent="1">
          <mxGeometry width="50" height="50" relative="1" as="geometry">
            <mxPoint x="350" y="1860" as="sourcePoint" />
            <mxPoint x="-250" y="1860" as="targetPoint" />
          </mxGeometry>
        </mxCell>
        <mxCell id="n2btJtfBKIa6bxDplJhF-121" value="Devolve o status" style="edgeLabel;html=1;align=center;verticalAlign=middle;resizable=0;points=[];" vertex="1" connectable="0" parent="n2btJtfBKIa6bxDplJhF-120">
          <mxGeometry x="0.122" y="-1" relative="1" as="geometry">
            <mxPoint x="1" y="-8" as="offset" />
          </mxGeometry>
        </mxCell>
        <mxCell id="n2btJtfBKIa6bxDplJhF-122" value="" style="shape=umlActor;verticalLabelPosition=bottom;verticalAlign=top;html=1;outlineConnect=0;" vertex="1" parent="1">
          <mxGeometry x="-310" y="930" width="30" height="60" as="geometry" />
        </mxCell>
        <mxCell id="n2btJtfBKIa6bxDplJhF-126" value="Envia Video" style="edgeLabel;html=1;align=center;verticalAlign=middle;resizable=0;points=[];" vertex="1" connectable="0" parent="1">
          <mxGeometry x="-184.99666666666653" y="1010.0000000000002" as="geometry">
            <mxPoint x="12" as="offset" />
          </mxGeometry>
        </mxCell>
        <mxCell id="n2btJtfBKIa6bxDplJhF-128" value="Busca Status" style="edgeLabel;html=1;align=center;verticalAlign=middle;resizable=0;points=[];" vertex="1" connectable="0" parent="1">
          <mxGeometry x="-185.0019047619046" y="1690" as="geometry" />
        </mxCell>
        <mxCell id="n2btJtfBKIa6bxDplJhF-129" value="Busca Frames" style="edgeLabel;html=1;align=center;verticalAlign=middle;resizable=0;points=[];" vertex="1" connectable="0" parent="1">
          <mxGeometry x="-184.9919047619046" y="1910" as="geometry">
            <mxPoint x="-3" as="offset" />
          </mxGeometry>
        </mxCell>
        <mxCell id="n2btJtfBKIa6bxDplJhF-133" value="&lt;font style=&quot;font-size: 25px;&quot;&gt;Driagrama de Sequencia&lt;/font&gt;" style="text;html=1;align=center;verticalAlign=middle;whiteSpace=wrap;rounded=0;" vertex="1" parent="1">
          <mxGeometry x="-340" y="870" width="330" height="50" as="geometry" />
        </mxCell>
      </root>
    </mxGraphModel>
  </diagram>
</mxfile>
